<svg xmlns="http://www.w3.org/2000/svg" viewBox="0 0 55.33 72.9"><defs><style>.cls-1,.cls-2,.cls-3,.cls-4{fill:none;stroke:#000;stroke-width:2px;}.cls-1{stroke-linecap:square;}.cls-1,.cls-3,.cls-4{stroke-miterlimit:10;}.cls-2,.cls-4{stroke-linecap:round;}.cls-2{stroke-linejoin:round;}</style></defs><g id="Layer_2" data-name="Layer 2"><g id="Layer_2-2" data-name="Layer 2"><path class="cls-1" d="M34,54.14c12.26-.46,20.26-15.67,20.3-26.62C52.93-7.84,2.4-7.84,1,27.52.83,39,9.57,52.29,22.43,54.14"/><path class="cls-2" d="M37.7,71.75v-33a10,10,0,0,0-2.06-3.82,9.54,9.54,0,0,0-3.37-2.49l.11-16.15,0-5.72-7.92-.15V32.56A6.72,6.72,0,0,0,21,34.18a6.87,6.87,0,0,0-2.2,4.55c0,4.8-.05,9.62-.06,14.43q-.06,9.09-.08,18.15"/><path class="cls-3" d="M28.06,59.28A2.8,2.8,0,0,1,25.69,57c-.38-2.12,2.66-7.25,2.66-7.25s2.84,5.57,2.6,6.89C30.55,58.78,29.42,59.37,28.06,59.28Z"/><line class="cls-4" x1="28.31" y1="65.66" x2="28.31" y2="71.9"/><line class="cls-3" x1="24.49" y1="16.27" x2="32.38" y2="16.27"/></g></g></svg>