<svg width="37" height="47" viewBox="0 0 37 47" fill="none" xmlns="http://www.w3.org/2000/svg">
<path d="M16.645 0.138561C14.7144 0.4863 12.9664 1.43292 11.6121 2.87218C9.90247 4.65917 9.02844 6.90015 9.02844 9.46956V10.4258H7.12671C5.04248 10.4258 4.4758 10.5128 3.61138 10.9861C2.61249 11.5174 1.68083 12.7055 1.35427 13.8549C1.23901 14.2413 0 39.6166 0 41.4809C0 42.0121 0.0576284 42.669 0.134466 42.9394C0.557074 44.5526 1.98818 45.9049 3.63059 46.2526C4.35094 46.4072 32.147 46.4072 32.8674 46.2526C34.5194 45.9049 35.9313 44.5719 36.3635 42.9394C36.4403 42.669 36.498 42.0121 36.498 41.4809C36.498 39.6166 35.2589 14.2413 35.1437 13.8549C34.8171 12.7055 33.8855 11.5174 32.8866 10.9861C32.0222 10.5128 31.4459 10.4258 29.3809 10.4258H27.4983L27.4407 9.09284C27.3639 7.08368 26.922 5.65409 25.8847 4.09892C23.9062 1.1045 20.1603 -0.498961 16.645 0.138561ZM19.5456 3.22957C21.2841 3.59663 22.8977 4.85236 23.7045 6.46548C24.1943 7.45074 24.396 8.32975 24.396 9.52751V10.4258H18.249H12.102V9.52751C12.1116 7.62461 12.6878 6.15638 13.9172 4.91031C15.4156 3.4131 17.471 2.7949 19.5456 3.22957ZM31.1481 13.5555C31.5899 13.7197 31.8589 13.9419 32.051 14.3282C32.1662 14.5601 32.3199 17.1005 32.8193 27.6582C33.1555 34.8352 33.4148 41.0752 33.4052 41.5292C33.3764 42.4854 33.2227 42.7656 32.5984 43.0747C32.2142 43.2679 32.051 43.2679 18.249 43.2679C4.44699 43.2679 4.28371 43.2679 3.89952 43.0747C3.26561 42.7559 3.12154 42.4854 3.09272 41.4809C3.08312 40.9979 3.34244 34.7869 3.67861 27.6582C4.36055 13.3526 4.28371 14.222 4.98485 13.7873L5.33062 13.5652L15.3195 13.5169C20.8134 13.4879 26.5379 13.4589 28.0458 13.4492C30.1492 13.4299 30.8696 13.4589 31.1481 13.5555Z" fill="white"/>
<path d="M9.91208 16.9943C9.16291 17.4579 9.04765 18.1921 9.50868 19.6216C9.9697 21.0609 10.5556 22.0075 11.7178 23.186C13.072 24.5576 14.2342 25.2338 16.0879 25.7361C17.0004 25.9775 18.9021 26.0355 19.9106 25.8423C22.8785 25.2724 25.2701 23.4758 26.5955 20.8001C27.0757 19.8342 27.4119 18.6364 27.3447 18.0955C27.2582 17.3227 26.6531 16.8011 25.8367 16.8011C25.0395 16.8011 24.5113 17.2454 24.3 18.1051C23.8678 19.8245 22.7344 21.3507 21.2937 22.1524C19.4016 23.2053 17.058 23.1956 15.1947 22.1138C14.4743 21.6888 13.4562 20.6842 13.0336 19.979C12.8319 19.641 12.5438 18.9455 12.3805 18.4335C12.0924 17.5062 11.8714 17.1682 11.3624 16.9073C11.0262 16.7335 10.2675 16.7818 9.91208 16.9943Z" fill="white"/>
</svg>
